<svg xmlns="http://www.w3.org/2000/svg" viewBox="0 0 32 32">
  <!-- Dark background -->
  <rect width="32" height="32" rx="7" fill="#0C0E10"/>
  <!-- Gold accent bar at top -->
  <rect x="0" y="0" width="32" height="2.5" rx="1.5" fill="#C8A415" opacity="0.8"/>
  <!-- Stylised mangrove / UAE leaf shape -->
  <path
    d="M16 7 C13 7 11 9 11 12 C11 14 12 15.5 12 17 C12 19 11 21 12 23 C13 25 14 26 16 26 C18 26 19 25 20 23 C21 21 20 19 20 17 C20 15.5 21 14 21 12 C21 9 19 7 16 7 Z"
    fill="none"
    stroke="#C8A415"
    stroke-width="1.4"
    stroke-linecap="round"
    stroke-linejoin="round"
    opacity="0.9"
  />
  <!-- AE small label -->
  <text x="16" y="15.5" text-anchor="middle" font-size="4.5" font-family="sans-serif" font-weight="700" fill="#C8A415" opacity="0.9">AE</text>
</svg>
